# xmcd CD database file
#
# Track frame offsets:
#	183
#	31923
#	43165
#	67020
#	90548
#	117245
#	141930
#	163190
#	173225
#	184955
#	201540
#
# Disc length: 2815 seconds
#
# Revision: 0
# Processed by: cddbd v1.5.1PL0 Copyright (c) Steve Scherf et al.
# Submitted via: CDex 1.51
#
DISCID=a50afd0b
DTITLE=Diverse Wiener Artists - Cool Vienna 1953 - 51
DYEAR=1900
DGENRE=Jazz
TTITLE0=Concerto For Clarinet
TTITLE1=The Creep
TTITLE2=I´ll Remember April
TTITLE3=Marvellous For Me
TTITLE4=Progressions On "Embrace Me"
TTITLE5=The Air From Other Planets
TTITLE6=Cool-Da
TTITLE7=La Mucura
TTITLE8=The Gentle Art Of Love
TTITLE9=Amadors Return
TTITLE10=1.Satz aus der Filmmusik "Deutschland Deine Sternchen"
EXTD=
EXTT0=
EXTT1=
EXTT2=
EXTT3=
EXTT4=
EXTT5=
EXTT6=
EXTT7=
EXTT8=
EXTT9=
EXTT10=
PLAYORDER=
